<mxfile host="app.diagrams.net" modified="2021-09-06T08:39:36.565Z" agent="5.0 (Windows NT 10.0; Win64; x64) AppleWebKit/537.36 (KHTML, like Gecko) Chrome/92.0.4515.159 Safari/537.36" etag="SBm1hMfaJHqN6s1ZPAzm" version="15.0.6" type="github">
  <diagram id="NqHhU-2h8I4aDM1TWToB" name="Page-1">
    <mxGraphModel dx="981" dy="637" grid="1" gridSize="10" guides="1" tooltips="1" connect="1" arrows="1" fold="1" page="1" pageScale="1" pageWidth="827" pageHeight="1169" math="0" shadow="0">
      <root>
        <mxCell id="0" />
        <mxCell id="1" parent="0" />
        <mxCell id="b2ZR7eKNKqCj4pdxpmJj-1" value="" style="rounded=1;whiteSpace=wrap;html=1;strokeWidth=2;fillWeight=1;hachureGap=4;hachureAngle=45;fillColor=#1ba1e2;sketch=1;" vertex="1" parent="1">
          <mxGeometry x="120" y="80" width="80" height="40" as="geometry" />
        </mxCell>
        <mxCell id="b2ZR7eKNKqCj4pdxpmJj-3" value="" style="endArrow=classic;html=1;entryX=0;entryY=1;entryDx=0;entryDy=0;sketch=1;exitX=0.486;exitY=-0.017;exitDx=0;exitDy=0;exitPerimeter=0;" edge="1" parent="1" source="b2ZR7eKNKqCj4pdxpmJj-5" target="b2ZR7eKNKqCj4pdxpmJj-1">
          <mxGeometry width="50" height="50" relative="1" as="geometry">
            <mxPoint x="80" y="160" as="sourcePoint" />
            <mxPoint x="130" y="190" as="targetPoint" />
          </mxGeometry>
        </mxCell>
        <mxCell id="b2ZR7eKNKqCj4pdxpmJj-5" value="offset" style="text;html=1;align=center;verticalAlign=middle;resizable=0;points=[];autosize=1;strokeColor=none;fillColor=none;" vertex="1" parent="1">
          <mxGeometry x="100" y="160" width="40" height="20" as="geometry" />
        </mxCell>
        <mxCell id="b2ZR7eKNKqCj4pdxpmJj-6" value="" style="rounded=1;whiteSpace=wrap;html=1;strokeWidth=2;fillWeight=1;hachureGap=4;hachureAngle=45;sketch=1;fillColor=#67AB9F;" vertex="1" parent="1">
          <mxGeometry x="40" y="80" width="10" height="40" as="geometry" />
        </mxCell>
        <mxCell id="b2ZR7eKNKqCj4pdxpmJj-8" value="" style="rounded=1;whiteSpace=wrap;html=1;strokeWidth=2;fillWeight=1;hachureGap=4;hachureAngle=45;sketch=1;fillColor=#67AB9F;" vertex="1" parent="1">
          <mxGeometry x="50" y="80" width="10" height="40" as="geometry" />
        </mxCell>
        <mxCell id="b2ZR7eKNKqCj4pdxpmJj-9" value="" style="rounded=1;whiteSpace=wrap;html=1;strokeWidth=2;fillWeight=1;hachureGap=4;hachureAngle=45;sketch=1;fillColor=#67AB9F;" vertex="1" parent="1">
          <mxGeometry x="60" y="80" width="10" height="40" as="geometry" />
        </mxCell>
        <mxCell id="b2ZR7eKNKqCj4pdxpmJj-10" value="" style="rounded=1;whiteSpace=wrap;html=1;strokeWidth=2;fillWeight=1;hachureGap=4;hachureAngle=45;sketch=1;fillColor=#67AB9F;" vertex="1" parent="1">
          <mxGeometry x="70" y="80" width="10" height="40" as="geometry" />
        </mxCell>
        <mxCell id="b2ZR7eKNKqCj4pdxpmJj-11" value="" style="rounded=1;whiteSpace=wrap;html=1;strokeWidth=2;fillWeight=1;hachureGap=4;hachureAngle=45;sketch=1;fillColor=#67AB9F;" vertex="1" parent="1">
          <mxGeometry x="80" y="80" width="10" height="40" as="geometry" />
        </mxCell>
        <mxCell id="b2ZR7eKNKqCj4pdxpmJj-12" value="" style="rounded=1;whiteSpace=wrap;html=1;strokeWidth=2;fillWeight=1;hachureGap=4;hachureAngle=45;sketch=1;fillColor=#67AB9F;" vertex="1" parent="1">
          <mxGeometry x="90" y="80" width="10" height="40" as="geometry" />
        </mxCell>
        <mxCell id="b2ZR7eKNKqCj4pdxpmJj-13" value="" style="rounded=1;whiteSpace=wrap;html=1;strokeWidth=2;fillWeight=1;hachureGap=4;hachureAngle=45;sketch=1;fillColor=#67AB9F;" vertex="1" parent="1">
          <mxGeometry x="100" y="80" width="10" height="40" as="geometry" />
        </mxCell>
        <mxCell id="b2ZR7eKNKqCj4pdxpmJj-14" value="" style="rounded=1;whiteSpace=wrap;html=1;strokeWidth=2;fillWeight=1;hachureGap=4;hachureAngle=45;sketch=1;fillColor=#67AB9F;" vertex="1" parent="1">
          <mxGeometry x="110" y="80" width="10" height="40" as="geometry" />
        </mxCell>
        <mxCell id="b2ZR7eKNKqCj4pdxpmJj-15" value="" style="endArrow=none;html=1;entryX=0;entryY=1;entryDx=0;entryDy=0;sketch=1;exitX=0.441;exitY=0.029;exitDx=0;exitDy=0;exitPerimeter=0;endFill=0;startArrow=classic;startFill=1;" edge="1" parent="1">
          <mxGeometry width="50" height="50" relative="1" as="geometry">
            <mxPoint x="54.84999999999994" y="79.99999999999999" as="sourcePoint" />
            <mxPoint x="55.16" y="39.42" as="targetPoint" />
          </mxGeometry>
        </mxCell>
        <mxCell id="b2ZR7eKNKqCj4pdxpmJj-16" value="sector" style="text;html=1;align=center;verticalAlign=middle;resizable=0;points=[];autosize=1;strokeColor=none;fillColor=none;" vertex="1" parent="1">
          <mxGeometry x="30" y="20" width="50" height="20" as="geometry" />
        </mxCell>
        <mxCell id="b2ZR7eKNKqCj4pdxpmJj-17" value="" style="endArrow=classic;html=1;entryX=0;entryY=1;entryDx=0;entryDy=0;sketch=1;exitX=0.441;exitY=0.029;exitDx=0;exitDy=0;exitPerimeter=0;" edge="1" parent="1">
          <mxGeometry width="50" height="50" relative="1" as="geometry">
            <mxPoint x="199.68999999999994" y="160.57999999999998" as="sourcePoint" />
            <mxPoint x="200" y="120" as="targetPoint" />
          </mxGeometry>
        </mxCell>
        <mxCell id="b2ZR7eKNKqCj4pdxpmJj-18" value="" style="endArrow=classic;startArrow=classic;html=1;sketch=1;" edge="1" parent="1">
          <mxGeometry width="50" height="50" relative="1" as="geometry">
            <mxPoint x="120" y="140" as="sourcePoint" />
            <mxPoint x="200" y="140" as="targetPoint" />
          </mxGeometry>
        </mxCell>
        <mxCell id="b2ZR7eKNKqCj4pdxpmJj-19" value="super block" style="edgeLabel;html=1;align=center;verticalAlign=middle;resizable=0;points=[];" vertex="1" connectable="0" parent="b2ZR7eKNKqCj4pdxpmJj-18">
          <mxGeometry x="0.1319" y="-1" relative="1" as="geometry">
            <mxPoint x="-5" y="9" as="offset" />
          </mxGeometry>
        </mxCell>
        <mxCell id="b2ZR7eKNKqCj4pdxpmJj-20" value=". . ." style="rounded=1;whiteSpace=wrap;html=1;strokeWidth=2;fillWeight=1;hachureGap=4;hachureAngle=45;sketch=1;fillColor=#FFFFFF;" vertex="1" parent="1">
          <mxGeometry x="200" y="80" width="80" height="40" as="geometry" />
        </mxCell>
        <mxCell id="b2ZR7eKNKqCj4pdxpmJj-21" value="" style="endArrow=classic;html=1;entryX=0;entryY=1;entryDx=0;entryDy=0;sketch=1;" edge="1" parent="1">
          <mxGeometry width="50" height="50" relative="1" as="geometry">
            <mxPoint x="280" y="200" as="sourcePoint" />
            <mxPoint x="280.30999999999995" y="120" as="targetPoint" />
          </mxGeometry>
        </mxCell>
        <mxCell id="b2ZR7eKNKqCj4pdxpmJj-22" value="first_sector" style="text;html=1;align=center;verticalAlign=middle;resizable=0;points=[];autosize=1;strokeColor=none;fillColor=none;" vertex="1" parent="1">
          <mxGeometry x="250" y="200" width="70" height="20" as="geometry" />
        </mxCell>
        <mxCell id="b2ZR7eKNKqCj4pdxpmJj-23" value="bucket" style="rounded=1;whiteSpace=wrap;html=1;strokeWidth=2;fillWeight=1;hachureGap=4;hachureAngle=45;sketch=1;fillColor=#FFFFFF;" vertex="1" parent="1">
          <mxGeometry x="520" y="80" width="80" height="40" as="geometry" />
        </mxCell>
        <mxCell id="b2ZR7eKNKqCj4pdxpmJj-25" value="" style="rounded=1;whiteSpace=wrap;html=1;strokeWidth=2;fillWeight=1;hachureGap=4;hachureAngle=45;sketch=1;fillColor=#67AB9F;" vertex="1" parent="1">
          <mxGeometry x="280" y="80" width="10" height="40" as="geometry" />
        </mxCell>
        <mxCell id="b2ZR7eKNKqCj4pdxpmJj-26" value="" style="rounded=1;whiteSpace=wrap;html=1;strokeWidth=2;fillWeight=1;hachureGap=4;hachureAngle=45;sketch=1;fillColor=#67AB9F;" vertex="1" parent="1">
          <mxGeometry x="290" y="80" width="10" height="40" as="geometry" />
        </mxCell>
        <mxCell id="b2ZR7eKNKqCj4pdxpmJj-27" value="" style="rounded=1;whiteSpace=wrap;html=1;strokeWidth=2;fillWeight=1;hachureGap=4;hachureAngle=45;sketch=1;fillColor=#67AB9F;" vertex="1" parent="1">
          <mxGeometry x="300" y="80" width="10" height="40" as="geometry" />
        </mxCell>
        <mxCell id="b2ZR7eKNKqCj4pdxpmJj-28" value="" style="rounded=1;whiteSpace=wrap;html=1;strokeWidth=2;fillWeight=1;hachureGap=4;hachureAngle=45;sketch=1;fillColor=#67AB9F;" vertex="1" parent="1">
          <mxGeometry x="310" y="80" width="10" height="40" as="geometry" />
        </mxCell>
        <mxCell id="b2ZR7eKNKqCj4pdxpmJj-29" value="" style="rounded=1;whiteSpace=wrap;html=1;strokeWidth=2;fillWeight=1;hachureGap=4;hachureAngle=45;sketch=1;fillColor=#67AB9F;" vertex="1" parent="1">
          <mxGeometry x="320" y="80" width="10" height="40" as="geometry" />
        </mxCell>
        <mxCell id="b2ZR7eKNKqCj4pdxpmJj-30" value="" style="rounded=1;whiteSpace=wrap;html=1;strokeWidth=2;fillWeight=1;hachureGap=4;hachureAngle=45;sketch=1;fillColor=#67AB9F;" vertex="1" parent="1">
          <mxGeometry x="330" y="80" width="10" height="40" as="geometry" />
        </mxCell>
        <mxCell id="b2ZR7eKNKqCj4pdxpmJj-31" value="" style="rounded=1;whiteSpace=wrap;html=1;strokeWidth=2;fillWeight=1;hachureGap=4;hachureAngle=45;sketch=1;fillColor=#67AB9F;" vertex="1" parent="1">
          <mxGeometry x="340" y="80" width="10" height="40" as="geometry" />
        </mxCell>
        <mxCell id="b2ZR7eKNKqCj4pdxpmJj-32" value="" style="rounded=1;whiteSpace=wrap;html=1;strokeWidth=2;fillWeight=1;hachureGap=4;hachureAngle=45;sketch=1;fillColor=#67AB9F;" vertex="1" parent="1">
          <mxGeometry x="350" y="80" width="10" height="40" as="geometry" />
        </mxCell>
        <mxCell id="b2ZR7eKNKqCj4pdxpmJj-33" value="block" style="rounded=1;whiteSpace=wrap;html=1;strokeWidth=2;fillWeight=1;hachureGap=4;hachureAngle=45;sketch=1;fillColor=#FFFFFF;" vertex="1" parent="1">
          <mxGeometry x="360" y="80" width="80" height="40" as="geometry" />
        </mxCell>
        <mxCell id="b2ZR7eKNKqCj4pdxpmJj-34" value=". . ." style="rounded=1;whiteSpace=wrap;html=1;strokeWidth=2;fillWeight=1;hachureGap=4;hachureAngle=45;sketch=1;fillColor=#FFFFFF;" vertex="1" parent="1">
          <mxGeometry x="440" y="80" width="80" height="40" as="geometry" />
        </mxCell>
        <mxCell id="b2ZR7eKNKqCj4pdxpmJj-35" value="..." style="rounded=1;whiteSpace=wrap;html=1;strokeWidth=2;fillWeight=1;hachureGap=4;hachureAngle=45;sketch=1;fillColor=#FFFFFF;" vertex="1" parent="1">
          <mxGeometry x="600" y="80" width="80" height="40" as="geometry" />
        </mxCell>
        <mxCell id="b2ZR7eKNKqCj4pdxpmJj-36" value="" style="endArrow=classic;html=1;entryX=0;entryY=1;entryDx=0;entryDy=0;sketch=1;exitX=0.441;exitY=0.029;exitDx=0;exitDy=0;exitPerimeter=0;" edge="1" parent="1">
          <mxGeometry width="50" height="50" relative="1" as="geometry">
            <mxPoint x="520" y="160.57999999999993" as="sourcePoint" />
            <mxPoint x="520.31" y="120" as="targetPoint" />
          </mxGeometry>
        </mxCell>
        <mxCell id="b2ZR7eKNKqCj4pdxpmJj-37" value="" style="endArrow=classic;startArrow=classic;html=1;sketch=1;" edge="1" parent="1">
          <mxGeometry width="50" height="50" relative="1" as="geometry">
            <mxPoint x="280" y="140" as="sourcePoint" />
            <mxPoint x="520" y="140" as="targetPoint" />
          </mxGeometry>
        </mxCell>
        <mxCell id="b2ZR7eKNKqCj4pdxpmJj-38" value="bucket" style="edgeLabel;html=1;align=center;verticalAlign=middle;resizable=0;points=[];" vertex="1" connectable="0" parent="b2ZR7eKNKqCj4pdxpmJj-37">
          <mxGeometry x="-0.0623" relative="1" as="geometry">
            <mxPoint x="8" y="10" as="offset" />
          </mxGeometry>
        </mxCell>
        <mxCell id="b2ZR7eKNKqCj4pdxpmJj-39" value="" style="endArrow=none;html=1;entryX=0;entryY=1;entryDx=0;entryDy=0;sketch=1;exitX=0.441;exitY=0.029;exitDx=0;exitDy=0;exitPerimeter=0;endFill=0;startArrow=classic;startFill=1;" edge="1" parent="1">
          <mxGeometry width="50" height="50" relative="1" as="geometry">
            <mxPoint x="279.51999999999987" y="80" as="sourcePoint" />
            <mxPoint x="279.8299999999999" y="39.420000000000016" as="targetPoint" />
          </mxGeometry>
        </mxCell>
        <mxCell id="b2ZR7eKNKqCj4pdxpmJj-40" value="" style="endArrow=none;html=1;entryX=0;entryY=1;entryDx=0;entryDy=0;sketch=1;exitX=0.441;exitY=0.029;exitDx=0;exitDy=0;exitPerimeter=0;endFill=0;startArrow=classic;startFill=1;" edge="1" parent="1">
          <mxGeometry width="50" height="50" relative="1" as="geometry">
            <mxPoint x="359.9999999999999" y="80" as="sourcePoint" />
            <mxPoint x="360.30999999999995" y="39.420000000000016" as="targetPoint" />
          </mxGeometry>
        </mxCell>
        <mxCell id="b2ZR7eKNKqCj4pdxpmJj-41" value="" style="endArrow=classic;startArrow=classic;html=1;sketch=1;" edge="1" parent="1">
          <mxGeometry width="50" height="50" relative="1" as="geometry">
            <mxPoint x="280" y="60" as="sourcePoint" />
            <mxPoint x="360" y="60" as="targetPoint" />
          </mxGeometry>
        </mxCell>
        <mxCell id="b2ZR7eKNKqCj4pdxpmJj-42" value="block" style="edgeLabel;html=1;align=center;verticalAlign=middle;resizable=0;points=[];" vertex="1" connectable="0" parent="b2ZR7eKNKqCj4pdxpmJj-41">
          <mxGeometry x="-0.0623" relative="1" as="geometry">
            <mxPoint x="2" y="-10" as="offset" />
          </mxGeometry>
        </mxCell>
        <mxCell id="b2ZR7eKNKqCj4pdxpmJj-43" value="" style="endArrow=classic;html=1;entryX=0;entryY=1;entryDx=0;entryDy=0;sketch=1;" edge="1" parent="1">
          <mxGeometry width="50" height="50" relative="1" as="geometry">
            <mxPoint x="40" y="200" as="sourcePoint" />
            <mxPoint x="40.309999999999945" y="120" as="targetPoint" />
          </mxGeometry>
        </mxCell>
        <mxCell id="b2ZR7eKNKqCj4pdxpmJj-44" value="" style="endArrow=classic;startArrow=classic;html=1;sketch=1;" edge="1" parent="1">
          <mxGeometry width="50" height="50" relative="1" as="geometry">
            <mxPoint x="40" y="180" as="sourcePoint" />
            <mxPoint x="280" y="180" as="targetPoint" />
          </mxGeometry>
        </mxCell>
        <mxCell id="b2ZR7eKNKqCj4pdxpmJj-45" value="bucket" style="edgeLabel;html=1;align=center;verticalAlign=middle;resizable=0;points=[];" vertex="1" connectable="0" parent="b2ZR7eKNKqCj4pdxpmJj-44">
          <mxGeometry x="-0.0623" relative="1" as="geometry">
            <mxPoint x="8" y="10" as="offset" />
          </mxGeometry>
        </mxCell>
        <mxCell id="b2ZR7eKNKqCj4pdxpmJj-46" value="" style="rounded=1;whiteSpace=wrap;html=1;strokeWidth=2;fillWeight=1;hachureGap=4;hachureAngle=45;fillColor=#1ba1e2;sketch=1;" vertex="1" parent="1">
          <mxGeometry x="120" y="320" width="80" height="40" as="geometry" />
        </mxCell>
        <mxCell id="b2ZR7eKNKqCj4pdxpmJj-47" value="" style="endArrow=classic;html=1;entryX=0;entryY=1;entryDx=0;entryDy=0;sketch=1;exitX=0.486;exitY=-0.017;exitDx=0;exitDy=0;exitPerimeter=0;" edge="1" parent="1" target="b2ZR7eKNKqCj4pdxpmJj-46">
          <mxGeometry width="50" height="50" relative="1" as="geometry">
            <mxPoint x="119.43999999999994" y="399.65999999999997" as="sourcePoint" />
            <mxPoint x="130" y="430" as="targetPoint" />
          </mxGeometry>
        </mxCell>
        <mxCell id="b2ZR7eKNKqCj4pdxpmJj-49" value="" style="rounded=1;whiteSpace=wrap;html=1;strokeWidth=2;fillWeight=1;hachureGap=4;hachureAngle=45;sketch=1;fillColor=#67AB9F;" vertex="1" parent="1">
          <mxGeometry x="40" y="320" width="10" height="40" as="geometry" />
        </mxCell>
        <mxCell id="b2ZR7eKNKqCj4pdxpmJj-50" value="" style="rounded=1;whiteSpace=wrap;html=1;strokeWidth=2;fillWeight=1;hachureGap=4;hachureAngle=45;sketch=1;fillColor=#67AB9F;" vertex="1" parent="1">
          <mxGeometry x="50" y="320" width="10" height="40" as="geometry" />
        </mxCell>
        <mxCell id="b2ZR7eKNKqCj4pdxpmJj-51" value="" style="rounded=1;whiteSpace=wrap;html=1;strokeWidth=2;fillWeight=1;hachureGap=4;hachureAngle=45;sketch=1;fillColor=#67AB9F;" vertex="1" parent="1">
          <mxGeometry x="60" y="320" width="10" height="40" as="geometry" />
        </mxCell>
        <mxCell id="b2ZR7eKNKqCj4pdxpmJj-52" value="" style="rounded=1;whiteSpace=wrap;html=1;strokeWidth=2;fillWeight=1;hachureGap=4;hachureAngle=45;sketch=1;fillColor=#67AB9F;" vertex="1" parent="1">
          <mxGeometry x="70" y="320" width="10" height="40" as="geometry" />
        </mxCell>
        <mxCell id="b2ZR7eKNKqCj4pdxpmJj-53" value="" style="rounded=1;whiteSpace=wrap;html=1;strokeWidth=2;fillWeight=1;hachureGap=4;hachureAngle=45;sketch=1;fillColor=#67AB9F;" vertex="1" parent="1">
          <mxGeometry x="80" y="320" width="10" height="40" as="geometry" />
        </mxCell>
        <mxCell id="b2ZR7eKNKqCj4pdxpmJj-54" value="" style="rounded=1;whiteSpace=wrap;html=1;strokeWidth=2;fillWeight=1;hachureGap=4;hachureAngle=45;sketch=1;fillColor=#67AB9F;" vertex="1" parent="1">
          <mxGeometry x="90" y="320" width="10" height="40" as="geometry" />
        </mxCell>
        <mxCell id="b2ZR7eKNKqCj4pdxpmJj-55" value="" style="rounded=1;whiteSpace=wrap;html=1;strokeWidth=2;fillWeight=1;hachureGap=4;hachureAngle=45;sketch=1;fillColor=#67AB9F;" vertex="1" parent="1">
          <mxGeometry x="100" y="320" width="10" height="40" as="geometry" />
        </mxCell>
        <mxCell id="b2ZR7eKNKqCj4pdxpmJj-56" value="" style="rounded=1;whiteSpace=wrap;html=1;strokeWidth=2;fillWeight=1;hachureGap=4;hachureAngle=45;sketch=1;fillColor=#67AB9F;" vertex="1" parent="1">
          <mxGeometry x="110" y="320" width="10" height="40" as="geometry" />
        </mxCell>
        <mxCell id="b2ZR7eKNKqCj4pdxpmJj-57" value="" style="endArrow=none;html=1;entryX=0;entryY=1;entryDx=0;entryDy=0;sketch=1;exitX=0.441;exitY=0.029;exitDx=0;exitDy=0;exitPerimeter=0;endFill=0;startArrow=classic;startFill=1;" edge="1" parent="1">
          <mxGeometry width="50" height="50" relative="1" as="geometry">
            <mxPoint x="54.849999999999795" y="320" as="sourcePoint" />
            <mxPoint x="55.15999999999997" y="279.41999999999996" as="targetPoint" />
          </mxGeometry>
        </mxCell>
        <mxCell id="b2ZR7eKNKqCj4pdxpmJj-58" value="sector" style="text;html=1;align=center;verticalAlign=middle;resizable=0;points=[];autosize=1;strokeColor=none;fillColor=none;" vertex="1" parent="1">
          <mxGeometry x="30" y="260" width="50" height="20" as="geometry" />
        </mxCell>
        <mxCell id="b2ZR7eKNKqCj4pdxpmJj-59" value="" style="endArrow=classic;html=1;entryX=0;entryY=1;entryDx=0;entryDy=0;sketch=1;exitX=0.441;exitY=0.029;exitDx=0;exitDy=0;exitPerimeter=0;" edge="1" parent="1">
          <mxGeometry width="50" height="50" relative="1" as="geometry">
            <mxPoint x="199.68999999999994" y="400.5799999999999" as="sourcePoint" />
            <mxPoint x="200" y="360" as="targetPoint" />
          </mxGeometry>
        </mxCell>
        <mxCell id="b2ZR7eKNKqCj4pdxpmJj-60" value="" style="endArrow=classic;startArrow=classic;html=1;sketch=1;" edge="1" parent="1">
          <mxGeometry width="50" height="50" relative="1" as="geometry">
            <mxPoint x="120" y="380" as="sourcePoint" />
            <mxPoint x="200" y="380" as="targetPoint" />
          </mxGeometry>
        </mxCell>
        <mxCell id="b2ZR7eKNKqCj4pdxpmJj-61" value="super block" style="edgeLabel;html=1;align=center;verticalAlign=middle;resizable=0;points=[];" vertex="1" connectable="0" parent="b2ZR7eKNKqCj4pdxpmJj-60">
          <mxGeometry x="0.1319" y="-1" relative="1" as="geometry">
            <mxPoint x="-5" y="9" as="offset" />
          </mxGeometry>
        </mxCell>
        <mxCell id="b2ZR7eKNKqCj4pdxpmJj-64" value="first_sector" style="text;html=1;align=center;verticalAlign=middle;resizable=0;points=[];autosize=1;strokeColor=none;fillColor=none;" vertex="1" parent="1">
          <mxGeometry x="170" y="400" width="70" height="20" as="geometry" />
        </mxCell>
        <mxCell id="b2ZR7eKNKqCj4pdxpmJj-65" value="bucket" style="rounded=1;whiteSpace=wrap;html=1;strokeWidth=2;fillWeight=1;hachureGap=4;hachureAngle=45;sketch=1;fillColor=#FFFFFF;" vertex="1" parent="1">
          <mxGeometry x="440" y="320.58" width="80" height="40" as="geometry" />
        </mxCell>
        <mxCell id="b2ZR7eKNKqCj4pdxpmJj-66" value="" style="rounded=1;whiteSpace=wrap;html=1;strokeWidth=2;fillWeight=1;hachureGap=4;hachureAngle=45;sketch=1;fillColor=#67AB9F;" vertex="1" parent="1">
          <mxGeometry x="200" y="320.58" width="10" height="40" as="geometry" />
        </mxCell>
        <mxCell id="b2ZR7eKNKqCj4pdxpmJj-67" value="" style="rounded=1;whiteSpace=wrap;html=1;strokeWidth=2;fillWeight=1;hachureGap=4;hachureAngle=45;sketch=1;fillColor=#67AB9F;" vertex="1" parent="1">
          <mxGeometry x="210" y="320.58" width="10" height="40" as="geometry" />
        </mxCell>
        <mxCell id="b2ZR7eKNKqCj4pdxpmJj-68" value="" style="rounded=1;whiteSpace=wrap;html=1;strokeWidth=2;fillWeight=1;hachureGap=4;hachureAngle=45;sketch=1;fillColor=#67AB9F;" vertex="1" parent="1">
          <mxGeometry x="220" y="320.58" width="10" height="40" as="geometry" />
        </mxCell>
        <mxCell id="b2ZR7eKNKqCj4pdxpmJj-69" value="" style="rounded=1;whiteSpace=wrap;html=1;strokeWidth=2;fillWeight=1;hachureGap=4;hachureAngle=45;sketch=1;fillColor=#67AB9F;" vertex="1" parent="1">
          <mxGeometry x="230" y="320.58" width="10" height="40" as="geometry" />
        </mxCell>
        <mxCell id="b2ZR7eKNKqCj4pdxpmJj-70" value="" style="rounded=1;whiteSpace=wrap;html=1;strokeWidth=2;fillWeight=1;hachureGap=4;hachureAngle=45;sketch=1;fillColor=#67AB9F;" vertex="1" parent="1">
          <mxGeometry x="240" y="320.58" width="10" height="40" as="geometry" />
        </mxCell>
        <mxCell id="b2ZR7eKNKqCj4pdxpmJj-71" value="" style="rounded=1;whiteSpace=wrap;html=1;strokeWidth=2;fillWeight=1;hachureGap=4;hachureAngle=45;sketch=1;fillColor=#67AB9F;" vertex="1" parent="1">
          <mxGeometry x="250" y="320.58" width="10" height="40" as="geometry" />
        </mxCell>
        <mxCell id="b2ZR7eKNKqCj4pdxpmJj-72" value="" style="rounded=1;whiteSpace=wrap;html=1;strokeWidth=2;fillWeight=1;hachureGap=4;hachureAngle=45;sketch=1;fillColor=#67AB9F;" vertex="1" parent="1">
          <mxGeometry x="260" y="320.58" width="10" height="40" as="geometry" />
        </mxCell>
        <mxCell id="b2ZR7eKNKqCj4pdxpmJj-73" value="" style="rounded=1;whiteSpace=wrap;html=1;strokeWidth=2;fillWeight=1;hachureGap=4;hachureAngle=45;sketch=1;fillColor=#67AB9F;" vertex="1" parent="1">
          <mxGeometry x="270" y="320.58" width="10" height="40" as="geometry" />
        </mxCell>
        <mxCell id="b2ZR7eKNKqCj4pdxpmJj-74" value="block" style="rounded=1;whiteSpace=wrap;html=1;strokeWidth=2;fillWeight=1;hachureGap=4;hachureAngle=45;sketch=1;fillColor=#FFFFFF;" vertex="1" parent="1">
          <mxGeometry x="280" y="320.58" width="80" height="40" as="geometry" />
        </mxCell>
        <mxCell id="b2ZR7eKNKqCj4pdxpmJj-75" value=". . ." style="rounded=1;whiteSpace=wrap;html=1;strokeWidth=2;fillWeight=1;hachureGap=4;hachureAngle=45;sketch=1;fillColor=#FFFFFF;" vertex="1" parent="1">
          <mxGeometry x="360" y="320.58" width="80" height="40" as="geometry" />
        </mxCell>
        <mxCell id="b2ZR7eKNKqCj4pdxpmJj-76" value="..." style="rounded=1;whiteSpace=wrap;html=1;strokeWidth=2;fillWeight=1;hachureGap=4;hachureAngle=45;sketch=1;fillColor=#FFFFFF;" vertex="1" parent="1">
          <mxGeometry x="520" y="320.58" width="80" height="40" as="geometry" />
        </mxCell>
        <mxCell id="b2ZR7eKNKqCj4pdxpmJj-77" value="" style="endArrow=classic;html=1;entryX=0;entryY=1;entryDx=0;entryDy=0;sketch=1;exitX=0.441;exitY=0.029;exitDx=0;exitDy=0;exitPerimeter=0;" edge="1" parent="1">
          <mxGeometry width="50" height="50" relative="1" as="geometry">
            <mxPoint x="440" y="401.1599999999999" as="sourcePoint" />
            <mxPoint x="440.30999999999995" y="360.58" as="targetPoint" />
          </mxGeometry>
        </mxCell>
        <mxCell id="b2ZR7eKNKqCj4pdxpmJj-78" value="" style="endArrow=classic;startArrow=classic;html=1;sketch=1;" edge="1" parent="1">
          <mxGeometry width="50" height="50" relative="1" as="geometry">
            <mxPoint x="200" y="380.58" as="sourcePoint" />
            <mxPoint x="440" y="380.58" as="targetPoint" />
          </mxGeometry>
        </mxCell>
        <mxCell id="b2ZR7eKNKqCj4pdxpmJj-79" value="bucket" style="edgeLabel;html=1;align=center;verticalAlign=middle;resizable=0;points=[];" vertex="1" connectable="0" parent="b2ZR7eKNKqCj4pdxpmJj-78">
          <mxGeometry x="-0.0623" relative="1" as="geometry">
            <mxPoint x="8" y="10" as="offset" />
          </mxGeometry>
        </mxCell>
        <mxCell id="b2ZR7eKNKqCj4pdxpmJj-80" value="" style="endArrow=none;html=1;entryX=0;entryY=1;entryDx=0;entryDy=0;sketch=1;exitX=0.441;exitY=0.029;exitDx=0;exitDy=0;exitPerimeter=0;endFill=0;startArrow=classic;startFill=1;" edge="1" parent="1">
          <mxGeometry width="50" height="50" relative="1" as="geometry">
            <mxPoint x="199.51999999999998" y="320.58" as="sourcePoint" />
            <mxPoint x="199.82999999999993" y="280.00000000000006" as="targetPoint" />
          </mxGeometry>
        </mxCell>
        <mxCell id="b2ZR7eKNKqCj4pdxpmJj-81" value="" style="endArrow=none;html=1;entryX=0;entryY=1;entryDx=0;entryDy=0;sketch=1;exitX=0.441;exitY=0.029;exitDx=0;exitDy=0;exitPerimeter=0;endFill=0;startArrow=classic;startFill=1;" edge="1" parent="1">
          <mxGeometry width="50" height="50" relative="1" as="geometry">
            <mxPoint x="280" y="320.58" as="sourcePoint" />
            <mxPoint x="280.30999999999995" y="280.00000000000006" as="targetPoint" />
          </mxGeometry>
        </mxCell>
        <mxCell id="b2ZR7eKNKqCj4pdxpmJj-82" value="" style="endArrow=classic;startArrow=classic;html=1;sketch=1;" edge="1" parent="1">
          <mxGeometry width="50" height="50" relative="1" as="geometry">
            <mxPoint x="200" y="300.58" as="sourcePoint" />
            <mxPoint x="280" y="300.58" as="targetPoint" />
          </mxGeometry>
        </mxCell>
        <mxCell id="b2ZR7eKNKqCj4pdxpmJj-83" value="block" style="edgeLabel;html=1;align=center;verticalAlign=middle;resizable=0;points=[];" vertex="1" connectable="0" parent="b2ZR7eKNKqCj4pdxpmJj-82">
          <mxGeometry x="-0.0623" relative="1" as="geometry">
            <mxPoint x="2" y="-10" as="offset" />
          </mxGeometry>
        </mxCell>
      </root>
    </mxGraphModel>
  </diagram>
</mxfile>
